M48
;DRILL file {KiCad 4.0.7} date 07/08/20 18:31:28
;FORMAT={-:-/ absolute / metric / decimal}
FMAT,2
METRIC,TZ
T1C0.800
T2C1.000
T3C1.400
%
G90
G05
M71
T1
X107.95Y-62.23
X107.95Y-69.85
X120.015Y-64.77
X120.015Y-67.27
X130.175Y-64.77
X130.175Y-67.31
X130.175Y-69.85
X130.175Y-72.39
X137.795Y-64.77
X137.795Y-67.31
X137.795Y-69.85
X137.795Y-72.39
X147.955Y-67.31
X147.955Y-69.81
X160.02Y-64.135
X160.02Y-71.755
T2
X113.665Y-53.975
X116.205Y-53.975
X118.745Y-53.975
X121.285Y-53.975
X128.27Y-81.915
X128.27Y-84.455
X128.27Y-86.995
X140.335Y-81.915
X140.335Y-84.455
X140.335Y-86.995
X148.59Y-53.975
X151.13Y-53.975
X153.67Y-53.975
X156.21Y-53.975
T3
X111.125Y-81.28
X111.125Y-86.36
X126.365Y-101.6
X131.445Y-101.6
X136.525Y-101.6
X141.605Y-101.6
X157.48Y-81.28
X157.48Y-86.36
T0
M30
